<svg xmlns="http://www.w3.org/2000/svg" version="1.1" xmlns:xlink="http://www.w3.org/1999/xlink" xmlns:svgjs="http://svgjs.com/svgjs" width="64" height="64"><svg xmlns="http://www.w3.org/2000/svg" viewBox="0 0 64 64"><rect width="64" height="64" fill="none"></rect><path d="M12.42,52.54a30.35,30.35,0,0,1-7.8-19.95C4.62,10.13,23.3,1.75,35.07,1.75A39.35,39.35,0,0,1,55.5,7.67a5.79,5.79,0,0,1,1.56,8,5.62,5.62,0,0,1-7.8,1.63l-.06,0a28.25,28.25,0,0,0-14.13-4c-7.37,0-17.55,4.87-17.55,19.33,0,8.23,6.12,17.93,17.34,17.93,6.31,0,10.75-1.68,13.33-3.32V38.64H39.44a5.76,5.76,0,0,1,0-11.51H53.87a5.78,5.78,0,0,1,5.75,5.76V50a5.89,5.89,0,0,1-1.79,4.13C54,57.88,45.66,62.25,34.64,62.25A29.44,29.44,0,0,1,12.42,52.54Z" transform="translate(0 0)" fill="#0b008a" fill-rule="evenodd"></path></svg><style>@media (prefers-color-scheme: light) { :root { filter: none; } }
@media (prefers-color-scheme: dark) { :root { filter: contrast(0.3846153846153846) brightness(4.5); } }
</style></svg>