<?xml version="1.0" encoding="UTF-8" standalone="no"?>
<svg
   width="441.75656"
   height="441.75656"
   version="1.1"
   id="svg1276"
   sodipodi:docname="MatchaAILogoFavIcon.svg"
   inkscape:version="1.1 (c4e8f9e, 2021-05-24)"
   xmlns:inkscape="http://www.inkscape.org/namespaces/inkscape"
   xmlns:sodipodi="http://sodipodi.sourceforge.net/DTD/sodipodi-0.dtd"
   xmlns="http://www.w3.org/2000/svg"
   xmlns:svg="http://www.w3.org/2000/svg">
  <defs
     id="defs1280" />
  <sodipodi:namedview
     id="namedview1278"
     pagecolor="#ffffff"
     bordercolor="#666666"
     borderopacity="1.0"
     inkscape:pageshadow="2"
     inkscape:pageopacity="0.0"
     inkscape:pagecheckerboard="0"
     showgrid="false"
     fit-margin-top="30"
     fit-margin-left="30"
     fit-margin-right="30"
     fit-margin-bottom="30"
     lock-margins="true"
     inkscape:zoom="0.63728847"
     inkscape:cx="65.119647"
     inkscape:cy="400.13277"
     inkscape:window-width="1920"
     inkscape:window-height="1080"
     inkscape:window-x="0"
     inkscape:window-y="139"
     inkscape:window-maximized="0"
     inkscape:current-layer="svg1276" />
  <g
     id="g2347"
     transform="translate(0,57.753781)">
    <path
       fill="#3599ad"
       d="m 370.408,193.687 c 13.685,-0.187 27.39,-0.056 41.078,-0.075 0.426,13.426 0.294,27.162 -0.018,40.591 q -20.607,0.232 -41.216,0.127 -0.036,-20.322 0.156,-40.643 z"
       id="path1238" />
    <path
       fill="#008099"
       d="m 370.338,116.637 41.049,0.022 c -0.121,13.713 0.021,27.435 0.073,41.149 l -40.978,0.318 c -0.656,-13.739 -0.155,-27.725 -0.144,-41.489 z"
       id="path1240" />
    <path
       fill="#3599ad"
       d="m 329.222,134.021 c 0.596,0.619 0.672,1.384 0.736,2.195 0.457,5.851 0.16,11.934 0.163,17.803 l -0.028,33.731 -0.36,107.842 q -23.049,-0.008 -46.098,0.22 l -0.622,-0.324 c -1.132,-3.932 -0.2,-23.818 -0.184,-29.48 0.077,-28.436 0.544,-56.953 -0.058,-85.38 16.243,-14.738 30.5,-31.535 46.451,-46.607 z"
       id="path1260" />
    <path
       fill="#3599ad"
       d="m 311.327,30 c 11.628,11.244 23.661,22.405 34.387,34.523 -3.61,4.528 -8.136,8.617 -12.203,12.75 -9.155,9.3 -18.529,18.359 -27.73,27.607 l -84.275,84.709 c 0.813,-8.101 0.307,-16.793 0.296,-24.953 l -0.102,-46.007 0.696,-0.177 c 7.077,-4.845 13.129,-12.943 19.181,-19.04 L 286.423,54.529 C 294.48,46.422 302.426,37.076 311.327,30 Z"
       id="path1262" />
    <path
       fill="#26d5ed"
       d="m 30.214,116.786 42.075,0.155 -0.058,39.852 -42.038,-0.034 z"
       id="path1268" />
    <path
       fill="#26d5ed"
       d="m 30,191.682 42.509,-0.07 -0.137,43.172 q -21.109,-0.055 -42.217,0.155 z"
       id="path1270" />
    <path
       fill="#26d5ed"
       d="m 112.652,129.876 q 23.58,25.083 47.996,49.355 l 0.112,0.481 c -0.389,12.699 -0.108,25.5 -0.147,38.209 l 0.018,78.202 -47.958,0.126 z"
       id="path1272" />
    <path
       fill="#26d5ed"
       d="m 131.403,30.088 c 10.261,7.479 18.765,17.55 27.688,26.553 q 22.136,22.275 44.784,44.03 c 6.033,5.893 11.485,12.379 17.825,17.958 l 0.102,46.007 c 0.011,8.16 0.517,16.852 -0.296,24.953 -2.256,-0.827 -55.918,-54.398 -62.173,-60.533 -4.62,-5.76 -11.007,-11.11 -16.256,-16.366 C 127.46,97.047 110.96,81.843 96.028,65.568 107.262,53.197 119.511,41.815 131.403,30.088 Z"
       id="path1274" />
  </g>
</svg>
